<?xml version="1.0" encoding="UTF-8" standalone="no"?>
<!-- Created with Inkscape (http://www.inkscape.org/) -->

<svg
   xmlns:dc="http://purl.org/dc/elements/1.1/"
   xmlns:cc="http://creativecommons.org/ns#"
   xmlns:rdf="http://www.w3.org/1999/02/22-rdf-syntax-ns#"
   xmlns:svg="http://www.w3.org/2000/svg"
   xmlns="http://www.w3.org/2000/svg"
   xmlns:sodipodi="http://sodipodi.sourceforge.net/DTD/sodipodi-0.dtd"
   xmlns:inkscape="http://www.inkscape.org/namespaces/inkscape"
   width="1080"
   height="1920"
   viewBox="0 0 285.75 508.00002"
   version="1.1"
   id="svg8"
   inkscape:version="0.92.0 r15299"
   sodipodi:docname="prototype_9_skeleton.svg">
  <sodipodi:namedview
     id="base"
     pagecolor="#ffffff"
     bordercolor="#666666"
     borderopacity="1.0"
     inkscape:pageopacity="0.0"
     inkscape:pageshadow="2"
     inkscape:zoom="4"
     inkscape:cx="312.42529"
     inkscape:cy="1356.2172"
     inkscape:document-units="px"
     inkscape:current-layer="layer3"
     showgrid="true"
     units="px"
     inkscape:pagecheckerboard="false"
     inkscape:window-width="1920"
     inkscape:window-height="1137"
     inkscape:window-x="-8"
     inkscape:window-y="-8"
     inkscape:window-maximized="1"
     showguides="true"
     inkscape:guide-bbox="true"
     inkscape:snap-global="false">
    <inkscape:grid
       dotted="true"
       originy="0"
       empspacing="6"
       spacingy="4.7625001"
       spacingx="8.4666668"
       id="grid30325"
       type="xygrid" />
    <sodipodi:guide
       inkscape:locked="false"
       id="guide30351"
       orientation="1,0"
       position="101.6,276.22501" />
    <sodipodi:guide
       inkscape:locked="false"
       id="guide30353"
       orientation="1,0"
       position="304.8,242.88751" />
    <sodipodi:guide
       inkscape:locked="false"
       id="guide30355"
       orientation="1,0"
       position="406.4,247.65001" />
    <sodipodi:guide
       inkscape:locked="false"
       id="guide30357"
       orientation="1,0"
       position="457.2,214.31251" />
    <sodipodi:guide
       inkscape:locked="false"
       id="guide30359"
       orientation="1,0"
       position="-44.450001,112.7125" />
    <sodipodi:guide
       inkscape:locked="false"
       id="guide30585"
       orientation="0,1"
       position="125.34941,243.48254" />
    <sodipodi:guide
       inkscape:locked="false"
       id="guide30516"
       orientation="0,1"
       position="199.43652,267.91098" />
    <sodipodi:guide
       inkscape:locked="false"
       id="guide30566"
       orientation="1,0"
       position="-75.670835,147.10834" />
    <sodipodi:guide
       inkscape:locked="false"
       id="guide30638"
       orientation="0,1"
       position="217.15649,200.05125" />
    <sodipodi:guide
       inkscape:locked="false"
       id="guide30720"
       orientation="0,1"
       position="269.11905,276.3006" />
    <sodipodi:guide
       position="147.24063,180.84271"
       orientation="0,1"
       id="guide46951"
       inkscape:locked="false" />
    <sodipodi:guide
       position="109.63396,397.93761"
       orientation="0,1"
       id="guide48071"
       inkscape:locked="false" />
    <sodipodi:guide
       position="171.97917,420.68751"
       orientation="0,1"
       id="guide48073"
       inkscape:locked="false" />
    <sodipodi:guide
       position="5.2916668,130.43959"
       orientation="1,0"
       id="guide30889"
       inkscape:locked="false" />
    <sodipodi:guide
       position="281.25209,82.285418"
       orientation="1,0"
       id="guide30919"
       inkscape:locked="false" />
    <sodipodi:guide
       position="151.07708,493.18335"
       orientation="1,0"
       id="guide30921"
       inkscape:locked="false" />
    <sodipodi:guide
       position="153.45833,483.52606"
       orientation="1,0"
       id="guide30923"
       inkscape:locked="false" />
    <sodipodi:guide
       position="118.00417,435.50419"
       orientation="0,1"
       id="guide30925"
       inkscape:locked="false" />
    <sodipodi:guide
       position="109.63396,401.11812"
       orientation="0,1"
       id="guide30958"
       inkscape:locked="false" />
    <sodipodi:guide
       position="108.54531,385.23335"
       orientation="0,1"
       id="guide30960"
       inkscape:locked="false" />
    <sodipodi:guide
       position="103.71667,404.87866"
       orientation="1,0"
       id="guide30962"
       inkscape:locked="false" />
    <sodipodi:guide
       position="43.030395,382.59634"
       orientation="0,1"
       id="guide30982"
       inkscape:locked="false" />
    <sodipodi:guide
       position="147.80005,17.212158"
       orientation="0,1"
       id="guide30994"
       inkscape:locked="false" />
    <sodipodi:guide
       position="115.6208,94.292693"
       orientation="1,0"
       id="guide30996"
       inkscape:locked="false" />
    <sodipodi:guide
       position="120.11093,52.010652"
       orientation="1,0"
       id="guide30998"
       inkscape:locked="false" />
    <sodipodi:guide
       position="166.88309,422.44623"
       orientation="0,1"
       id="guide30523"
       inkscape:locked="false" />
  </sodipodi:namedview>
  <defs
     id="defs2">
    <inkscape:path-effect
       effect="knot"
       id="path-effect48002"
       is_visible="true"
       interruption_width="3"
       prop_to_stroke_width="true"
       add_stroke_width="true"
       add_other_stroke_width="true"
       switcher_size="15"
       crossing_points_vector="" />
    <marker
       inkscape:stockid="Arrow2Mend"
       orient="auto"
       refY="0.0"
       refX="0.0"
       id="marker48000"
       style="overflow:visible;"
       inkscape:isstock="true">
      <path
         id="path47998"
         style="fill-rule:evenodd;stroke-width:0.625;stroke-linejoin:round;stroke:#ff7f2a;stroke-opacity:1;fill:#ff7f2a;fill-opacity:1"
         d="M 8.7185878,4.0337352 L -2.2072895,0.016013256 L 8.7185884,-4.0017078 C 6.9730900,-1.6296469 6.9831476,1.6157441 8.7185878,4.0337352 z "
         transform="scale(0.6) rotate(180) translate(0,0)" />
    </marker>
    <marker
       inkscape:stockid="Arrow2Mend"
       orient="auto"
       refY="0.0"
       refX="0.0"
       id="marker47994"
       style="overflow:visible;"
       inkscape:isstock="true">
      <path
         id="path47992"
         style="fill-rule:evenodd;stroke-width:0.625;stroke-linejoin:round;stroke:#ff7f2a;stroke-opacity:1;fill:#ff7f2a;fill-opacity:1"
         d="M 8.7185878,4.0337352 L -2.2072895,0.016013256 L 8.7185884,-4.0017078 C 6.9730900,-1.6296469 6.9831476,1.6157441 8.7185878,4.0337352 z "
         transform="scale(0.6) rotate(180) translate(0,0)" />
    </marker>
    <marker
       inkscape:stockid="Arrow1Send"
       orient="auto"
       refY="0.0"
       refX="0.0"
       id="marker47966"
       style="overflow:visible;"
       inkscape:isstock="true">
      <path
         id="path47964"
         d="M 0.0,0.0 L 5.0,-5.0 L -12.5,0.0 L 5.0,5.0 L 0.0,0.0 z "
         style="fill-rule:evenodd;stroke:#ff7f2a;stroke-width:1pt;stroke-opacity:1;fill:#ff7f2a;fill-opacity:1"
         transform="scale(0.2) rotate(180) translate(6,0)" />
    </marker>
    <marker
       inkscape:stockid="Arrow2Lend"
       orient="auto"
       refY="0.0"
       refX="0.0"
       id="marker47962"
       style="overflow:visible;"
       inkscape:isstock="true">
      <path
         id="path47960"
         style="fill-rule:evenodd;stroke-width:0.625;stroke-linejoin:round;stroke:#ff7f2a;stroke-opacity:1;fill:#ff7f2a;fill-opacity:1"
         d="M 8.7185878,4.0337352 L -2.2072895,0.016013256 L 8.7185884,-4.0017078 C 6.9730900,-1.6296469 6.9831476,1.6157441 8.7185878,4.0337352 z "
         transform="scale(1.1) rotate(180) translate(1,0)" />
    </marker>
    <marker
       inkscape:isstock="true"
       style="overflow:visible"
       id="marker31050"
       refX="0"
       refY="0"
       orient="auto"
       inkscape:stockid="Arrow2Mend">
      <path
         transform="scale(-0.6)"
         d="M 8.7185878,4.0337352 -2.2072895,0.01601326 8.7185884,-4.0017078 c -1.7454984,2.3720609 -1.7354408,5.6174519 -6e-7,8.035443 z"
         style="fill:#ffffff;fill-opacity:1;fill-rule:evenodd;stroke:#ffffff;stroke-width:0.625;stroke-linejoin:round;stroke-opacity:1"
         id="path31048"
         inkscape:connector-curvature="0" />
    </marker>
    <marker
       inkscape:isstock="true"
       style="overflow:visible"
       id="Arrow1Send"
       refX="0"
       refY="0"
       orient="auto"
       inkscape:stockid="Arrow1Send">
      <path
         transform="matrix(-0.2,0,0,-0.2,-1.2,0)"
         style="fill:#ffffff;fill-opacity:1;fill-rule:evenodd;stroke:#ffffff;stroke-width:1.00000003pt;stroke-opacity:1"
         d="M 0,0 5,-5 -12.5,0 5,5 Z"
         id="path30793"
         inkscape:connector-curvature="0" />
    </marker>
    <marker
       inkscape:isstock="true"
       style="overflow:visible"
       id="Arrow2Mend"
       refX="0"
       refY="0"
       orient="auto"
       inkscape:stockid="Arrow2Mend">
      <path
         transform="scale(-0.6)"
         d="M 8.7185878,4.0337352 -2.2072895,0.01601326 8.7185884,-4.0017078 c -1.7454984,2.3720609 -1.7354408,5.6174519 -6e-7,8.035443 z"
         style="fill:#ffffff;fill-opacity:1;fill-rule:evenodd;stroke:#ffffff;stroke-width:0.625;stroke-linejoin:round;stroke-opacity:1"
         id="path30805"
         inkscape:connector-curvature="0" />
    </marker>
    <marker
       inkscape:isstock="true"
       style="overflow:visible"
       id="Arrow1Mend"
       refX="0"
       refY="0"
       orient="auto"
       inkscape:stockid="Arrow1Mend">
      <path
         transform="matrix(-0.4,0,0,-0.4,-4,0)"
         style="fill:#ffffff;fill-opacity:1;fill-rule:evenodd;stroke:#ffffff;stroke-width:1.00000003pt;stroke-opacity:1"
         d="M 0,0 5,-5 -12.5,0 5,5 Z"
         id="path30787"
         inkscape:connector-curvature="0" />
    </marker>
    <marker
       inkscape:isstock="true"
       style="overflow:visible"
       id="Arrow2Lend"
       refX="0"
       refY="0"
       orient="auto"
       inkscape:stockid="Arrow2Lend">
      <path
         transform="matrix(-1.1,0,0,-1.1,-1.1,0)"
         d="M 8.7185878,4.0337352 -2.2072895,0.01601326 8.7185884,-4.0017078 c -1.7454984,2.3720609 -1.7354408,5.6174519 -6e-7,8.035443 z"
         style="fill:#ffffff;fill-opacity:1;fill-rule:evenodd;stroke:#ffffff;stroke-width:0.625;stroke-linejoin:round;stroke-opacity:1"
         id="path30799"
         inkscape:connector-curvature="0" />
    </marker>
    <clipPath
       clipPathUnits="userSpaceOnUse"
       id="clipPath38885">
      <rect
         style="opacity:1;fill:#ffffff;fill-opacity:0.49664432;fill-rule:nonzero;stroke:#ffffff;stroke-width:0.79375005;stroke-linecap:butt;stroke-linejoin:bevel;stroke-miterlimit:4;stroke-dasharray:none;stroke-dashoffset:0;stroke-opacity:1;paint-order:normal"
         id="rect38887"
         width="60.060417"
         height="50.138542"
         x="-75.670837"
         y="327.82391" />
    </clipPath>
    <clipPath
       clipPathUnits="userSpaceOnUse"
       id="clipPath38885-6">
      <rect
         style="opacity:1;fill:#ffffff;fill-opacity:0.49664432;fill-rule:nonzero;stroke:#ffffff;stroke-width:0.79375005;stroke-linecap:butt;stroke-linejoin:bevel;stroke-miterlimit:4;stroke-dasharray:none;stroke-dashoffset:0;stroke-opacity:1;paint-order:normal"
         id="rect38887-8"
         width="60.060417"
         height="50.138542"
         x="-75.670837"
         y="327.82391" />
    </clipPath>
    <clipPath
       clipPathUnits="userSpaceOnUse"
       id="clipPath38927">
      <rect
         style="opacity:1;fill:#ffffff;fill-opacity:0.49664432;fill-rule:nonzero;stroke:#ffffff;stroke-width:0.79375005;stroke-linecap:butt;stroke-linejoin:bevel;stroke-miterlimit:4;stroke-dasharray:none;stroke-dashoffset:0;stroke-opacity:1;paint-order:normal"
         id="rect38929"
         width="55.033333"
         height="49.212502"
         x="-76.200005"
         y="241.96661" />
    </clipPath>
    <symbol
       id="calendar"
       viewBox="0 0 20 20">
      <title
         id="title8363">calendar</title>
      <path
         d="m 15,4 h 3 V 18 H 2 V 4 H 5 V 3 C 5,2.17 5.67,1.5 6.5,1.5 7.33,1.5 8,2.17 8,3 v 1 h 4 V 3 C 12,2.17 12.67,1.5 13.5,1.5 14.33,1.5 15,2.17 15,3 Z M 6,3 V 5.5 C 6,5.78 6.22,6 6.5,6 6.78,6 7,5.78 7,5.5 V 3 C 7,2.72 6.78,2.5 6.5,2.5 6.22,2.5 6,2.72 6,3 Z m 7,0 V 5.5 C 13,5.78 13.22,6 13.5,6 13.78,6 14,5.78 14,5.5 V 3 C 14,2.72 13.78,2.5 13.5,2.5 13.22,2.5 13,2.72 13,3 Z m 4,14 V 8 H 3 v 9 z M 7,16 V 9 H 5 v 7 z m 4,0 V 9 H 9 v 7 z m 4,0 V 9 h -2 v 7 z"
         id="path8365"
         inkscape:connector-curvature="0" />
    </symbol>
    <symbol
       id="calendar-alt"
       viewBox="0 0 20 20">
      <title
         id="title8358">calendar-alt</title>
      <path
         d="m 15,4 h 3 V 19 H 2 V 4 H 5 V 3 C 5,2.59 5.15,2.24 5.44,1.94 5.73,1.65 6.09,1.5 6.5,1.5 6.91,1.5 7.27,1.65 7.56,1.94 7.85,2.24 8,2.59 8,3 v 1 h 4 V 3 C 12,2.59 12.15,2.24 12.44,1.94 12.73,1.65 13.09,1.5 13.5,1.5 c 0.41,0 0.77,0.15 1.06,0.44 C 14.85,2.24 15,2.59 15,3 Z M 6,3 V 5.5 A 0.491,0.491 0 0 0 6.5,6 0.491,0.491 0 0 0 7,5.5 V 3 C 7,2.86 6.95,2.74 6.85,2.65 6.76,2.55 6.64,2.5 6.5,2.5 6.36,2.5 6.24,2.55 6.15,2.65 6.05,2.74 6,2.86 6,3 Z m 7,0 v 2.5 c 0,0.14 0.05,0.26 0.14,0.36 C 13.24,5.95 13.36,6 13.5,6 13.64,6 13.76,5.95 13.86,5.86 13.95,5.76 14,5.64 14,5.5 V 3 A 0.491,0.491 0 0 0 13.5,2.5 0.491,0.491 0 0 0 13,3 Z m 4,15 V 8 H 3 V 18 Z M 7,9 v 2 H 5 V 9 Z m 2,0 h 2 v 2 H 9 Z m 4,2 V 9 h 2 v 2 z m -6,1 v 2 H 5 v -2 z m 2,0 h 2 v 2 H 9 Z m 4,2 v -2 h 2 v 2 z m -6,1 v 2 H 5 v -2 z m 4,2 H 9 v -2 h 2 z m 4,0 h -2 v -2 h 2 z"
         id="path8360"
         inkscape:connector-curvature="0" />
    </symbol>
    <symbol
       id="awards"
       viewBox="0 0 20 20">
      <title
         id="title8328">awards</title>
      <path
         d="M 4.46,5.16 5,7.46 4.46,9.75 6.47,10.99 7.7,13 10,12.46 12.3,13 13.53,10.99 15.54,9.75 15,7.46 15.54,5.16 13.54,3.92 12.3,1.91 10,2.46 7.71,1.92 l -1.25,2 z m 5.55,6.34 a 4,4 0 1 1 0,-8 c 2.2,0 3.99,1.79 3.99,3.99 0,2.22 -1.79,4.01 -3.99,4.01 z m -0.02,-1 C 8.33,10.5 7,9.16 7,7.5 c 0,-1.65 1.33,-3 2.99,-3 1.66,0 3.01,1.35 3.01,3 0,1.66 -1.35,3 -3.01,3 z m 3.84,1.1 -1.28,2.24 L 10.47,13.37 13,19.2 14.4,17 h 2.5 z M 6.13,11.67 7.38,13.92 9.51,13.41 7,19.2 5.6,17 H 3.1 Z"
         id="path8330"
         inkscape:connector-curvature="0" />
    </symbol>
    <symbol
       id="icon-thermometer"
       viewBox="0 0 16 28">
      <title
         id="title13888">thermometer</title>
      <path
         class="path1"
         d="M 10,21 C 10,22.656 8.656,24 7,24 5.344,24 4,22.656 4,21 4,19.75 4.781,18.609 6,18.172 V 4 H 8 V 18.172 C 9.219,18.61 10,19.75 10,21 Z m 2,0 c 0,-1.641 -0.781,-3.078 -2,-4 V 5 C 10,3.344 8.656,2 7,2 5.344,2 4,3.344 4,5 v 12 c -1.219,0.922 -2,2.359 -2,4 0,2.766 2.234,5 5,5 2.766,0 5,-2.234 5,-5 z m 2,0 c 0,3.859 -3.141,7 -7,7 C 3.141,28 0,24.859 0,21 0,19.094 0.766,17.375 2,16.109 V 5 C 2,2.234 4.234,0 7,0 c 2.766,0 5,2.234 5,5 v 11.109 c 1.234,1.266 2,2.984 2,4.891 z m 2,-9 v 2 h -3 v -2 z m 0,-4 v 2 H 13 V 8 Z M 16,4 V 6 H 13 V 4 Z"
         id="path13890"
         inkscape:connector-curvature="0" />
    </symbol>
    <symbol
       id="icon-snowflake-o"
       viewBox="0 0 26 28">
      <title
         id="title13988">snowflake-o</title>
      <path
         class="path1"
         d="m 24.469,17.453 -2.609,0.516 2.906,1.672 c 0.469,0.266 0.641,0.891 0.359,1.359 -0.282,0.468 -0.891,0.641 -1.359,0.359 l -2.906,-1.656 0.859,2.5 c 0.438,1.25 -1.469,1.891 -1.891,0.656 L 18.234,18.171 14,15.733 v 4.891 l 3.25,3.719 c 0.875,0.984 -0.641,2.312 -1.5,1.313 l -1.75,-2 V 27 c 0,0.547 -0.453,1 -1,1 -0.547,0 -1,-0.453 -1,-1 v -3.344 l -1.75,2 c -0.859,1 -2.375,-0.328 -1.5,-1.313 L 12,20.624 V 15.733 L 7.766,18.171 6.172,22.859 C 5.75,24.093 3.844,23.453 4.281,22.203 l 0.859,-2.5 -2.906,1.656 C 1.765,21.64 1.156,21.468 0.875,21 0.594,20.532 0.766,19.906 1.234,19.641 L 4.14,17.969 1.531,17.453 C 0.234,17.187 0.625,15.234 1.922,15.484 L 6.766,16.453 11,14 6.766,11.547 1.922,12.516 c -0.063,0.016 -0.141,0.016 -0.203,0.016 -1.188,0 -1.359,-1.75 -0.187,-1.984 L 4.141,10.032 1.235,8.36 C 0.766,8.094 0.594,7.469 0.876,7.001 1.157,6.517 1.767,6.36 2.235,6.642 L 5.141,8.298 4.282,5.798 C 3.844,4.548 5.751,3.907 6.173,5.142 l 1.594,4.688 4.234,2.438 V 7.377 L 8.751,3.658 C 7.876,2.674 9.392,1.346 10.251,2.345 l 1.75,2 V 1.001 c 0,-0.547 0.453,-1 1,-1 0.547,0 1,0.453 1,1 v 3.344 l 1.75,-2 c 0.859,-1 2.375,0.328 1.5,1.313 l -3.25,3.719 v 4.891 L 18.235,9.83 19.829,5.142 c 0.422,-1.234 2.328,-0.594 1.891,0.656 l -0.859,2.5 2.906,-1.656 c 0.469,-0.281 1.078,-0.109 1.359,0.359 0.281,0.468 0.109,1.094 -0.359,1.359 l -2.906,1.672 2.609,0.516 c 1.172,0.234 1,1.984 -0.187,1.984 -0.063,0 -0.141,0 -0.203,-0.016 L 19.236,11.547 15.002,14 l 4.234,2.453 4.844,-0.969 c 1.297,-0.25 1.687,1.703 0.391,1.969 z"
         id="path13990"
         inkscape:connector-curvature="0" />
    </symbol>
    <symbol
       id="icon-certificate"
       viewBox="0 0 24 28">
      <title
         id="title11403">certificate</title>
      <path
         class="path1"
         d="m 21.5,14 2.156,2.109 c 0.297,0.281 0.406,0.703 0.313,1.094 -0.109,0.391 -0.422,0.703 -0.812,0.797 l -2.938,0.75 0.828,2.906 c 0.109,0.391 0,0.812 -0.297,1.094 -0.281,0.297 -0.703,0.406 -1.094,0.297 L 16.75,22.219 16,25.157 C 15.906,25.548 15.594,25.86 15.203,25.969 15.109,25.985 15,26 14.906,26 14.609,26 14.312,25.875 14.109,25.656 L 12,23.5 9.891,25.656 C 9.61,25.953 9.188,26.062 8.797,25.969 8.391,25.86 8.094,25.547 8,25.157 L 7.25,22.219 4.344,23.047 C 3.953,23.156 3.532,23.047 3.25,22.75 2.953,22.469 2.844,22.047 2.953,21.656 L 3.781,18.75 0.843,18 C 0.452,17.906 0.14,17.594 0.031,17.203 -0.063,16.812 0.047,16.391 0.344,16.109 L 2.5,14 0.344,11.891 C 0.047,11.61 -0.062,11.188 0.031,10.797 0.14,10.406 0.453,10.094 0.843,10 L 3.781,9.25 2.953,6.344 C 2.844,5.953 2.953,5.532 3.25,5.25 3.531,4.953 3.953,4.844 4.344,4.953 L 7.25,5.781 8,2.843 C 8.094,2.452 8.406,2.14 8.797,2.046 c 0.391,-0.109 0.812,0 1.094,0.297 L 12,4.515 14.109,2.343 C 14.39,2.046 14.797,1.937 15.203,2.046 15.594,2.14 15.906,2.452 16,2.843 l 0.75,2.938 2.906,-0.828 c 0.391,-0.109 0.812,0 1.094,0.297 0.297,0.281 0.406,0.703 0.297,1.094 L 20.219,9.25 23.157,10 c 0.391,0.094 0.703,0.406 0.812,0.797 0.094,0.391 -0.016,0.812 -0.313,1.094 z"
         id="path11405"
         inkscape:connector-curvature="0" />
    </symbol>
    <symbol
       id="icon-sun-stroke"
       viewBox="0 0 1022 1024">
      <title
         id="title16062">sun-stroke</title>
      <path
         class="path1"
         d="m 512.032,384 c 70.496,0 128,57.44 128,128 0,70.56 -57.504,128 -128,128 -70.496,0 -128,-57.44 -128,-128 0,-70.56 57.504,-128 128,-128 z m 0,-128 c -141.376,0 -256,114.624 -256,256 0,141.376 114.624,256 256,256 C 653.408,768 768,653.376 768,512 768,370.624 653.408,256 512.032,256 Z M 448,64 c 0,-35.346 28.654,-64 64,-64 35.346,0 64,28.654 64,64 0,35.346 -28.654,64 -64,64 -35.346,0 -64,-28.654 -64,-64 z M 128,192 c 0,-35.346 28.654,-64 64,-64 35.346,0 64,28.654 64,64 0,35.346 -28.654,64 -64,64 -35.346,0 -64,-28.654 -64,-64 z M 64,448 c 35.36,0 64,28.64 64,64 0,35.424 -28.64,64 -64,64 C 28.64,576 0,547.424 0,512 0,476.64 28.64,448 64,448 Z m 64,384 c 0,-35.346 28.654,-64 64,-64 35.346,0 64,28.654 64,64 0,35.346 -28.654,64 -64,64 -35.346,0 -64,-28.654 -64,-64 z m 320,128 c 0,-35.488 28.64,-64 64,-64 35.456,0 64,28.512 64,64 0,35.264 -28.544,64 -64,64 -35.36,0 -64,-28.736 -64,-64 z M 768,832 c 0,-35.346 28.654,-64 64,-64 35.346,0 64,28.654 64,64 0,35.346 -28.654,64 -64,64 -35.346,0 -64,-28.654 -64,-64 z M 960,576 c -35.328,0 -64,-28.672 -64,-64 0,-35.424 28.672,-64 64,-64 35.328,0 64,28.576 64,64 0,35.328 -28.672,64 -64,64 z M 768,192 c 0,-35.346 28.654,-64 64,-64 35.346,0 64,28.654 64,64 0,35.346 -28.654,64 -64,64 -35.346,0 -64,-28.654 -64,-64 z"
         id="path16064"
         inkscape:connector-curvature="0" />
    </symbol>
    <symbol
       id="icon-wifi"
       viewBox="0 0 32 28">
      <title
         id="title12868">wifi</title>
      <path
         class="path1"
         d="m 16,23.797 c -0.406,0 -2.594,-2.188 -2.594,-2.609 0,-0.766 2,-1.188 2.594,-1.188 0.594,0 2.594,0.422 2.594,1.188 0,0.422 -2.188,2.609 -2.594,2.609 z m 4.219,-4.234 C 20,19.563 18.297,18 16,18 c -2.312,0 -3.984,1.563 -4.219,1.563 -0.375,0 -2.641,-2.25 -2.641,-2.625 0,-0.141 0.063,-0.266 0.156,-0.359 1.672,-1.656 4.391,-2.578 6.703,-2.578 2.312,0 5.031,0.922 6.703,2.578 0.094,0.094 0.156,0.219 0.156,0.359 0,0.375 -2.266,2.625 -2.641,2.625 z m 4.265,-4.25 c -0.125,0 -0.266,-0.063 -0.359,-0.125 -2.578,-2 -4.75,-3.187 -8.125,-3.187 -4.719,0 -8.313,3.313 -8.484,3.313 -0.359,0 -2.609,-2.25 -2.609,-2.625 0,-0.125 0.063,-0.25 0.156,-0.344 2.797,-2.797 7.016,-4.344 10.938,-4.344 3.922,0 8.141,1.547 10.938,4.344 0.094,0.094 0.156,0.219 0.156,0.344 0,0.375 -2.25,2.625 -2.609,2.625 z m 4.235,-4.235 c -0.125,0 -0.25,-0.063 -0.344,-0.141 C 24.766,7.765 20.875,6 16,6 11.125,6 7.234,7.766 3.625,10.937 3.531,11.015 3.406,11.078 3.281,11.078 2.922,11.078 0.656,8.828 0.656,8.453 0.656,8.312 0.719,8.187 0.812,8.094 4.765,4.172 10.468,2 16,2 c 5.532,0 11.234,2.172 15.188,6.094 0.094,0.094 0.156,0.219 0.156,0.359 0,0.375 -2.266,2.625 -2.625,2.625 z"
         id="path12870"
         inkscape:connector-curvature="0" />
    </symbol>
    <clipPath
       id="highcharts-up534i5-12">
      <rect
         id="rect46955"
         height="492"
         width="526"
         y="0"
         x="0"
         style="fill:none" />
    </clipPath>
    <clipPath
       id="highcharts-up534i5-13">
      <rect
         id="rect46958"
         height="282"
         width="600"
         y="281"
         x="0"
         style="fill:none" />
    </clipPath>
    <clipPath
       id="highcharts-up534i5-14">
      <rect
         id="rect46961"
         height="70"
         width="600"
         y="211"
         x="0"
         style="fill:none" />
    </clipPath>
    <clipPath
       id="highcharts-up534i5-15">
      <rect
         id="rect46964"
         height="70"
         width="600"
         y="141"
         x="0"
         style="fill:none" />
    </clipPath>
    <clipPath
       id="highcharts-up534i5-16">
      <rect
         id="rect46967"
         height="141"
         width="600"
         y="0"
         x="0"
         style="fill:none" />
    </clipPath>
    <clipPath
       id="highcharts-up534i5-17">
      <rect
         id="rect46970"
         height="0"
         width="600"
         y="0"
         x="0"
         style="fill:none" />
    </clipPath>
    <clipPath
       clipPathUnits="userSpaceOnUse"
       id="clipPath47708">
      <rect
         style="opacity:0.38600003;fill:#ffffff;fill-opacity:1;fill-rule:nonzero;stroke:#ffffff;stroke-width:0.20399374;stroke-linecap:butt;stroke-linejoin:bevel;stroke-miterlimit:4;stroke-dasharray:0.61198124, 0.61198124;stroke-dashoffset:0;stroke-opacity:0.15;paint-order:normal"
         id="rect47710"
         width="43.030396"
         height="38.914444"
         x="176.79878"
         y="67.255058" />
    </clipPath>
  </defs>
  <metadata
     id="metadata5">
    <rdf:RDF>
      <cc:Work
         rdf:about="">
        <dc:format>image/svg+xml</dc:format>
        <dc:type
           rdf:resource="http://purl.org/dc/dcmitype/StillImage" />
        <dc:title></dc:title>
      </cc:Work>
    </rdf:RDF>
  </metadata>
  <g
     style="display:inline"
     inkscape:label="Background"
     id="layer2"
     inkscape:groupmode="layer"
     transform="translate(0,222.25)" />
  <g
     transform="translate(0,211.00006)"
     id="layer1"
     inkscape:groupmode="layer"
     inkscape:label="Layer 1" />
  <g
     inkscape:groupmode="layer"
     id="layer3"
     inkscape:label="Boxes">
    <rect
       style="opacity:1;fill:#ff0000;fill-opacity:0.19463088;fill-rule:nonzero;stroke:none;stroke-width:0.49022713;stroke-linecap:butt;stroke-linejoin:bevel;stroke-miterlimit:4;stroke-dasharray:none;stroke-dashoffset:0;stroke-opacity:0.15;paint-order:normal"
       id="date"
       width="141.0229"
       height="21.431252"
       x="6.0287938"
       y="3.5945654"
       inkscape:label="#rect30881" />
    <rect
       inkscape:label="#rect30881"
       y="39.271149"
       x="5.3879638"
       height="40.275356"
       width="79.543282"
       id="today_events"
       style="opacity:1;fill:#ff0000;fill-opacity:0.19463088;fill-rule:nonzero;stroke:none;stroke-width:0.50471961;stroke-linecap:butt;stroke-linejoin:bevel;stroke-miterlimit:4;stroke-dasharray:none;stroke-dashoffset:0;stroke-opacity:0.15;paint-order:normal" />
    <rect
       style="opacity:1;fill:#ff0000;fill-opacity:0.19463088;fill-rule:nonzero;stroke:none;stroke-width:0.50825238;stroke-linecap:butt;stroke-linejoin:bevel;stroke-miterlimit:4;stroke-dasharray:none;stroke-dashoffset:0;stroke-opacity:0.15;paint-order:normal"
       id="future_events"
       width="61.208591"
       height="53.074883"
       x="85.836098"
       y="26.471624"
       inkscape:label="#rect30881" />
    <rect
       inkscape:label="#rect30881"
       y="4.1176801"
       x="151.34956"
       height="48.398052"
       width="126.9354"
       id="today_forecast"
       style="opacity:1;fill:#ff0000;fill-opacity:0.19463088;fill-rule:nonzero;stroke:none;stroke-width:0.6989305;stroke-linecap:butt;stroke-linejoin:bevel;stroke-miterlimit:4;stroke-dasharray:none;stroke-dashoffset:0;stroke-opacity:0.15;paint-order:normal" />
    <rect
       style="opacity:1;fill:#ff0000;fill-opacity:0.19463088;fill-rule:nonzero;stroke:none;stroke-width:0.50344265;stroke-linecap:butt;stroke-linejoin:bevel;stroke-miterlimit:4;stroke-dasharray:none;stroke-dashoffset:0;stroke-opacity:0.15;paint-order:normal"
       id="time"
       width="93.38784"
       height="34.131248"
       x="5.3879638"
       y="82.771065"
       inkscape:label="#rect30881" />
    <rect
       inkscape:label="#rect30881"
       y="376.59302"
       x="132.84283"
       height="116.41667"
       width="160.99506"
       id="gnomon"
       style="opacity:1;fill:#ff0000;fill-opacity:0.25167787;fill-rule:nonzero;stroke:none;stroke-width:1.22079456;stroke-linecap:butt;stroke-linejoin:bevel;stroke-miterlimit:4;stroke-dasharray:none;stroke-dashoffset:0;stroke-opacity:0.15;paint-order:normal" />
    <rect
       style="opacity:1;fill:#ff0000;fill-opacity:0.25167787;fill-rule:nonzero;stroke:none;stroke-width:0.31967202;stroke-linecap:butt;stroke-linejoin:bevel;stroke-miterlimit:4;stroke-dasharray:none;stroke-dashoffset:0;stroke-opacity:0.15;paint-order:normal"
       id="location"
       width="95.239922"
       height="13.493752"
       x="119.85625"
       y="490.80212"
       inkscape:label="#rect30881" />
    <rect
       inkscape:label="#rect30881"
       y="490.80212"
       x="5.3852162"
       height="13.493752"
       width="110.12362"
       id="wifi"
       style="opacity:1;fill:#ff0000;fill-opacity:0.25167787;fill-rule:nonzero;stroke:none;stroke-width:0.34374416;stroke-linecap:butt;stroke-linejoin:bevel;stroke-miterlimit:4;stroke-dasharray:none;stroke-dashoffset:0;stroke-opacity:0.15;paint-order:normal" />
    <rect
       inkscape:label="#rect30881"
       y="83.035652"
       x="109.93452"
       height="34.131248"
       width="36.512882"
       id="main_forecast_icon"
       style="opacity:1;fill:#ff0000;fill-opacity:0.19463088;fill-rule:nonzero;stroke:none;stroke-width:0.31479505;stroke-linecap:butt;stroke-linejoin:bevel;stroke-miterlimit:4;stroke-dasharray:none;stroke-dashoffset:0;stroke-opacity:0.15;paint-order:normal" />
    <rect
       style="opacity:1;fill:#ff0000;fill-opacity:0.19463088;fill-rule:nonzero;stroke:none;stroke-width:0.31479505;stroke-linecap:butt;stroke-linejoin:bevel;stroke-miterlimit:4;stroke-dasharray:none;stroke-dashoffset:0;stroke-opacity:0.15;paint-order:normal"
       id="main_temperature"
       width="36.512882"
       height="34.131248"
       x="153.42125"
       y="83.035645"
       inkscape:label="#rect30881" />
    <rect
       inkscape:label="#rect30881"
       y="82.893959"
       x="198.89235"
       height="34.131248"
       width="36.512882"
       id="main_wind"
       style="opacity:1;fill:#ff0000;fill-opacity:0.19463088;fill-rule:nonzero;stroke:none;stroke-width:0.31479505;stroke-linecap:butt;stroke-linejoin:bevel;stroke-miterlimit:4;stroke-dasharray:none;stroke-dashoffset:0;stroke-opacity:0.15;paint-order:normal" />
    <rect
       style="opacity:1;fill:#ff0000;fill-opacity:0.19463088;fill-rule:nonzero;stroke:none;stroke-width:0.31479505;stroke-linecap:butt;stroke-linejoin:bevel;stroke-miterlimit:4;stroke-dasharray:none;stroke-dashoffset:0;stroke-opacity:0.15;paint-order:normal"
       id="main_moon"
       width="36.512882"
       height="34.131248"
       x="244.36345"
       y="83.003555"
       inkscape:label="#rect30881" />
    <rect
       inkscape:label="#rect30881"
       y="119.23455"
       x="6.0704408"
       height="12.80314"
       width="36.287796"
       id="main_uve"
       style="opacity:1;fill:#ff0000;fill-opacity:0.19463088;fill-rule:nonzero;stroke:none;stroke-width:0.19220614;stroke-linecap:butt;stroke-linejoin:bevel;stroke-miterlimit:4;stroke-dasharray:none;stroke-dashoffset:0;stroke-opacity:0.15;paint-order:normal" />
    <rect
       style="opacity:1;fill:#ff0000;fill-opacity:0.19463088;fill-rule:nonzero;stroke:none;stroke-width:0.9164381;stroke-linecap:butt;stroke-linejoin:bevel;stroke-miterlimit:4;stroke-dasharray:none;stroke-dashoffset:0;stroke-opacity:0.15;paint-order:normal"
       id="tomorrow_timeseries"
       width="60.158604"
       height="175.57028"
       x="166.21095"
       y="145.36496"
       inkscape:label="#rect30881" />
    <rect
       inkscape:label="#rect30881"
       y="133.76546"
       x="0.43493652"
       height="187.16978"
       width="165.65244"
       id="today_timeseries"
       style="opacity:1;fill:#ff0000;fill-opacity:0.19463088;fill-rule:nonzero;stroke:none;stroke-width:1.57016587;stroke-linecap:butt;stroke-linejoin:bevel;stroke-miterlimit:4;stroke-dasharray:none;stroke-dashoffset:0;stroke-opacity:0.15;paint-order:normal" />
    <rect
       style="opacity:1;fill:#ff0000;fill-opacity:0.19463088;fill-rule:nonzero;stroke:none;stroke-width:0.54036295;stroke-linecap:butt;stroke-linejoin:bevel;stroke-miterlimit:4;stroke-dasharray:none;stroke-dashoffset:0;stroke-opacity:0.15;paint-order:normal"
       id="time_forecast"
       width="286.81189"
       height="12.80314"
       x="-1.0081662"
       y="146.20961"
       inkscape:label="#rect30881" />
    <rect
       inkscape:label="#rect30881"
       y="158.85316"
       x="-1.1559167"
       height="12.80314"
       width="286.81189"
       id="timeline_labels"
       style="opacity:1;fill:#ff0000;fill-opacity:0.19463088;fill-rule:nonzero;stroke:none;stroke-width:0.54036295;stroke-linecap:butt;stroke-linejoin:bevel;stroke-miterlimit:4;stroke-dasharray:none;stroke-dashoffset:0;stroke-opacity:0.15;paint-order:normal" />
    <rect
       inkscape:label="#rect30881"
       y="321.41104"
       x="227.42725"
       height="54.160393"
       width="56.01968"
       id="aurora_map"
       style="opacity:1;fill:#ff0000;fill-opacity:0.19463088;fill-rule:nonzero;stroke:none;stroke-width:0.49117914;stroke-linecap:butt;stroke-linejoin:bevel;stroke-miterlimit:4;stroke-dasharray:none;stroke-dashoffset:0;stroke-opacity:0.15;paint-order:normal" />
    <rect
       style="opacity:1;fill:#ff0000;fill-opacity:0.19463088;fill-rule:nonzero;stroke:none;stroke-width:0.49117914;stroke-linecap:butt;stroke-linejoin:bevel;stroke-miterlimit:4;stroke-dasharray:none;stroke-dashoffset:0;stroke-opacity:0.15;paint-order:normal"
       id="solar_map"
       width="56.01968"
       height="54.160393"
       x="171.35739"
       y="321.80008"
       inkscape:label="#rect30881" />
    <rect
       inkscape:label="#rect30881"
       y="321.80008"
       x="115.28751"
       height="54.160393"
       width="56.01968"
       id="sat_map"
       style="opacity:1;fill:#ff0000;fill-opacity:0.19463088;fill-rule:nonzero;stroke:none;stroke-width:0.49117914;stroke-linecap:butt;stroke-linejoin:bevel;stroke-miterlimit:4;stroke-dasharray:none;stroke-dashoffset:0;stroke-opacity:0.15;paint-order:normal" />
    <rect
       inkscape:label="#rect30881"
       y="490.80212"
       x="220.13579"
       height="13.493752"
       width="60.815601"
       id="signature"
       style="opacity:1;fill:#ff0000;fill-opacity:0.25167787;fill-rule:nonzero;stroke:none;stroke-width:0.25544807;stroke-linecap:butt;stroke-linejoin:bevel;stroke-miterlimit:4;stroke-dasharray:none;stroke-dashoffset:0;stroke-opacity:0.15;paint-order:normal" />
    <rect
       inkscape:label="#rect30881"
       y="172.02785"
       x="-1.0081662"
       height="35.627956"
       width="287.93445"
       id="tide"
       style="opacity:1;fill:#ff0000;fill-opacity:0.19463088;fill-rule:nonzero;stroke:none;stroke-width:0.90317321;stroke-linecap:butt;stroke-linejoin:bevel;stroke-miterlimit:4;stroke-dasharray:none;stroke-dashoffset:0;stroke-opacity:0.15;paint-order:normal" />
    <rect
       style="opacity:1;fill:#ff0000;fill-opacity:0.19463088;fill-rule:nonzero;stroke:none;stroke-width:0.75687027;stroke-linecap:butt;stroke-linejoin:bevel;stroke-miterlimit:4;stroke-dasharray:none;stroke-dashoffset:0;stroke-opacity:0.15;paint-order:normal"
       id="temp_timeseries"
       width="286.43771"
       height="25.150991"
       x="-1.0081662"
       y="207.94888"
       inkscape:label="#rect30881" />
    <rect
       inkscape:label="#rect30881"
       y="233.019"
       x="-1.0081662"
       height="25.150991"
       width="287.18607"
       id="wind_timeseries"
       style="opacity:1;fill:#ff0000;fill-opacity:0.19463088;fill-rule:nonzero;stroke:none;stroke-width:0.75785834;stroke-linecap:butt;stroke-linejoin:bevel;stroke-miterlimit:4;stroke-dasharray:none;stroke-dashoffset:0;stroke-opacity:0.15;paint-order:normal" />
    <rect
       style="opacity:1;fill:#ff0000;fill-opacity:0.19463088;fill-rule:nonzero;stroke:none;stroke-width:0.60649174;stroke-linecap:butt;stroke-linejoin:bevel;stroke-miterlimit:4;stroke-dasharray:none;stroke-dashoffset:0;stroke-opacity:0.15;paint-order:normal"
       id="timeseries_solar_day"
       width="286.06354"
       height="16.170734"
       x="0.17383756"
       y="258.46298"
       inkscape:label="#rect30881" />
    <flowRoot
       xml:space="preserve"
       id="flowRoot31022"
       style="fill:black;stroke:none;stroke-opacity:1;stroke-width:1px;stroke-linejoin:miter;stroke-linecap:butt;fill-opacity:1;font-family:Oxygen;font-style:normal;font-weight:normal;font-size:40px;line-height:24px;letter-spacing:0px;word-spacing:0px;-inkscape-font-specification:Oxygen;font-stretch:normal;font-variant:normal"><flowRegion
         id="flowRegion31024"><rect
           id="rect31026"
           width="748.11896"
           height="349.31076"
           x="562.85699"
           y="255.47063" /></flowRegion><flowPara
         id="flowPara31028" /></flowRoot>    <rect
       style="opacity:1;fill:#ff0000;fill-opacity:0.19463088;fill-rule:nonzero;stroke:none;stroke-width:0.19220614;stroke-linecap:butt;stroke-linejoin:bevel;stroke-miterlimit:4;stroke-dasharray:none;stroke-dashoffset:0;stroke-opacity:0.15;paint-order:normal"
       id="timezone"
       width="36.287796"
       height="12.80314"
       x="62.371227"
       y="119.23455"
       inkscape:label="#rect30881" />
    <rect
       inkscape:label="#rect30881"
       y="53.896461"
       x="151.64462"
       height="27.394444"
       width="76.18502"
       id="main_visibility"
       style="opacity:1;fill:#ff0000;fill-opacity:0.19463088;fill-rule:nonzero;stroke:none;stroke-width:0.40737528;stroke-linecap:butt;stroke-linejoin:bevel;stroke-miterlimit:4;stroke-dasharray:none;stroke-dashoffset:0;stroke-opacity:0.15;paint-order:normal" />
    <rect
       style="opacity:1;fill:#ff0000;fill-opacity:0.19463088;fill-rule:nonzero;stroke:none;stroke-width:0.22422297;stroke-linecap:butt;stroke-linejoin:bevel;stroke-miterlimit:4;stroke-dasharray:none;stroke-dashoffset:0;stroke-opacity:0.15;paint-order:normal"
       id="main_uv"
       width="49.384003"
       height="12.80314"
       x="229.48349"
       y="53.895763"
       inkscape:label="#rect30881" />
    <rect
       inkscape:label="#rect30881"
       y="119.54453"
       x="198.94595"
       height="12.80314"
       width="36.287796"
       id="main_stormforce"
       style="opacity:1;fill:#ff0000;fill-opacity:0.19463088;fill-rule:nonzero;stroke:none;stroke-width:0.19220614;stroke-linecap:butt;stroke-linejoin:bevel;stroke-miterlimit:4;stroke-dasharray:none;stroke-dashoffset:0;stroke-opacity:0.15;paint-order:normal" />
    <rect
       style="opacity:1;fill:#ff0000;fill-opacity:0.19463088;fill-rule:nonzero;stroke:none;stroke-width:0.19220614;stroke-linecap:butt;stroke-linejoin:bevel;stroke-miterlimit:4;stroke-dasharray:none;stroke-dashoffset:0;stroke-opacity:0.15;paint-order:normal"
       id="main_moon_state"
       width="36.287796"
       height="12.80314"
       x="244.22142"
       y="119.54453"
       inkscape:label="#rect30881" />
    <rect
       inkscape:label="#rect30881"
       y="68.466652"
       x="229.43851"
       height="12.80314"
       width="49.384003"
       id="main_vis"
       style="opacity:1;fill:#ff0000;fill-opacity:0.19463088;fill-rule:nonzero;stroke:none;stroke-width:0.22422297;stroke-linecap:butt;stroke-linejoin:bevel;stroke-miterlimit:4;stroke-dasharray:none;stroke-dashoffset:0;stroke-opacity:0.15;paint-order:normal" />
    <rect
       style="opacity:1;fill:#ff0000;fill-opacity:0.19463088;fill-rule:nonzero;stroke:none;stroke-width:0.27786836;stroke-linecap:butt;stroke-linejoin:bevel;stroke-miterlimit:4;stroke-dasharray:none;stroke-dashoffset:0;stroke-opacity:0.15;paint-order:normal"
       id="rect217560"
       width="79.318192"
       height="12.241875"
       x="5.8704529"
       y="26.300104"
       inkscape:label="#rect30881" />
    <rect
       style="opacity:1;fill:#ff0000;fill-opacity:0.19463088;fill-rule:nonzero;stroke:none;stroke-width:0.19220614;stroke-linecap:butt;stroke-linejoin:bevel;stroke-miterlimit:4;stroke-dasharray:none;stroke-dashoffset:0;stroke-opacity:0.15;paint-order:normal"
       id="main_pressure"
       width="36.287796"
       height="12.80314"
       x="109.89174"
       y="119.54453"
       inkscape:label="#rect30881" />
    <rect
       inkscape:label="#rect30881"
       y="119.54453"
       x="152.54796"
       height="12.80314"
       width="36.287796"
       id="main_temp_minmax"
       style="opacity:1;fill:#ff0000;fill-opacity:0.19463088;fill-rule:nonzero;stroke:none;stroke-width:0.19220614;stroke-linecap:butt;stroke-linejoin:bevel;stroke-miterlimit:4;stroke-dasharray:none;stroke-dashoffset:0;stroke-opacity:0.15;paint-order:normal" />
    <rect
       inkscape:label="#rect30881"
       y="145.36496"
       x="226.45351"
       height="175.57028"
       width="60.158604"
       id="timeline_3day"
       style="opacity:1;fill:#ff0000;fill-opacity:0.19463088;fill-rule:nonzero;stroke:none;stroke-width:0.9164381;stroke-linecap:butt;stroke-linejoin:bevel;stroke-miterlimit:4;stroke-dasharray:none;stroke-dashoffset:0;stroke-opacity:0.15;paint-order:normal" />
    <rect
       style="opacity:1;fill:#ff0000;fill-opacity:0.19463088;fill-rule:nonzero;stroke:none;stroke-width:0.52683562;stroke-linecap:butt;stroke-linejoin:bevel;stroke-miterlimit:4;stroke-dasharray:none;stroke-dashoffset:0;stroke-opacity:0.15;paint-order:normal"
       id="day3_timeseries"
       width="19.881159"
       height="175.57028"
       x="226.07933"
       y="145.36496"
       inkscape:label="#rect30881" />
    <rect
       inkscape:label="#rect30881"
       y="145.36496"
       x="246.03096"
       height="175.57028"
       width="19.881159"
       id="day4_timeseries"
       style="opacity:1;fill:#ff0000;fill-opacity:0.19463088;fill-rule:nonzero;stroke:none;stroke-width:0.52683562;stroke-linecap:butt;stroke-linejoin:bevel;stroke-miterlimit:4;stroke-dasharray:none;stroke-dashoffset:0;stroke-opacity:0.15;paint-order:normal" />
    <rect
       style="opacity:1;fill:#ff0000;fill-opacity:0.19463088;fill-rule:nonzero;stroke:none;stroke-width:0.52683562;stroke-linecap:butt;stroke-linejoin:bevel;stroke-miterlimit:4;stroke-dasharray:none;stroke-dashoffset:0;stroke-opacity:0.15;paint-order:normal"
       id="day5_timeseries"
       width="19.881159"
       height="175.57028"
       x="265.60843"
       y="145.36496"
       inkscape:label="#rect30881" />
    <rect
       inkscape:label="#rect30881"
       y="133.86176"
       x="-1.0081662"
       height="11.680608"
       width="286.43771"
       id="timeline_day_labels"
       style="opacity:1;fill:#ff0000;fill-opacity:0.19463088;fill-rule:nonzero;stroke:none;stroke-width:0.51579434;stroke-linecap:butt;stroke-linejoin:bevel;stroke-miterlimit:4;stroke-dasharray:none;stroke-dashoffset:0;stroke-opacity:0.15;paint-order:normal" />
    <rect
       inkscape:label="#rect30881"
       y="401.13364"
       x="7.06215"
       height="89.699249"
       width="132.23517"
       id="synoptic_map"
       style="opacity:1;fill:#ff0000;fill-opacity:0.19463088;fill-rule:nonzero;stroke:none;stroke-width:0.97117293;stroke-linecap:butt;stroke-linejoin:bevel;stroke-miterlimit:4;stroke-dasharray:none;stroke-dashoffset:0;stroke-opacity:0.15;paint-order:normal" />
    <rect
       style="opacity:1;fill:#ff0000;fill-opacity:0.19463088;fill-rule:nonzero;stroke:none;stroke-width:0.77982628;stroke-linecap:butt;stroke-linejoin:bevel;stroke-miterlimit:4;stroke-dasharray:none;stroke-dashoffset:0;stroke-opacity:0.15;paint-order:normal"
       id="satellite_map"
       width="91.428001"
       height="83.648689"
       x="7.4363284"
       y="320.74933"
       inkscape:label="#rect30881" />
  </g>
</svg>
