<?xml version="1.0" encoding="UTF-8" standalone="no"?>
<!-- Created with Inkscape (http://www.inkscape.org/) -->

<svg
   xmlns:dc="http://purl.org/dc/elements/1.1/"
   xmlns:cc="http://creativecommons.org/ns#"
   xmlns:rdf="http://www.w3.org/1999/02/22-rdf-syntax-ns#"
   xmlns:svg="http://www.w3.org/2000/svg"
   xmlns="http://www.w3.org/2000/svg"
   xmlns:sodipodi="http://sodipodi.sourceforge.net/DTD/sodipodi-0.dtd"
   xmlns:inkscape="http://www.inkscape.org/namespaces/inkscape"
   width="210mm"
   height="297mm"
   viewBox="0 0 210 297"
   version="1.1"
   id="svg31036"
   inkscape:version="0.92.0 r15299"
   sodipodi:docname="voe2.svg">
  <defs
     id="defs31030" />
  <sodipodi:namedview
     id="base"
     pagecolor="#ffffff"
     bordercolor="#666666"
     borderopacity="1.0"
     inkscape:pageopacity="0.0"
     inkscape:pageshadow="2"
     inkscape:zoom="3.959798"
     inkscape:cx="-3.6266726"
     inkscape:cy="1027.7278"
     inkscape:document-units="mm"
     inkscape:current-layer="g56775"
     showgrid="false"
     inkscape:snap-global="false"
     showguides="true"
     inkscape:guide-bbox="true"
     inkscape:window-width="1920"
     inkscape:window-height="1137"
     inkscape:window-x="-8"
     inkscape:window-y="-8"
     inkscape:window-maximized="1" />
  <metadata
     id="metadata31033">
    <rdf:RDF>
      <cc:Work
         rdf:about="">
        <dc:format>image/svg+xml</dc:format>
        <dc:type
           rdf:resource="http://purl.org/dc/dcmitype/StillImage" />
        <dc:title></dc:title>
      </cc:Work>
    </rdf:RDF>
  </metadata>
  <g
     inkscape:label="Layer 1"
     inkscape:groupmode="layer"
     id="layer1">
    <g
       id="g56775"
       transform="translate(-50.715627,-51.404762)">
      <g
         id="g56811"
         transform="translate(0.13127223,0.0590588)">
        <rect
           style="opacity:1;fill:#ffffff;fill-opacity:0.85234896;fill-rule:nonzero;stroke:none;stroke-width:0.08703453;stroke-linecap:butt;stroke-linejoin:bevel;stroke-miterlimit:4;stroke-dasharray:none;stroke-dashoffset:0;stroke-opacity:1;paint-order:normal"
           id="rect191123"
           width="36.476562"
           height="12.683486"
           x="50.764503"
           y="51.345066" />
        <path
           id="km11"
           style="fill:#000000;fill-rule:evenodd;stroke:none;stroke-width:0.0699399;stroke-linecap:butt;stroke-linejoin:miter;stroke-miterlimit:4;stroke-dasharray:none;stroke-opacity:1"
           d="m 87.249563,53.871333 -1.057365,-0.08902 -1.753462,-0.130777 -1.770159,0.228854 -1.352669,-0.326933 -0.851679,0.261553 h -2.020654 l -2.287847,0.03269 -0.935177,0.228854 -0.317294,0.03266 -1.586463,-0.326936 -0.484288,0.163464 -3.285649,0.400547 1.565587,0.122561 3.231375,0.09807 4.717641,0.163464 1.168975,0.228854 1.903754,0.457715 5.123114,0.436829"
           inkscape:connector-curvature="0"
           sodipodi:nodetypes="ccccccccccccccccccc"
           inkscape:label="#path217550" />
        <path
           style="fill:#000000;fill-rule:evenodd;stroke:none;stroke-width:0.05;stroke-linecap:butt;stroke-linejoin:miter;stroke-miterlimit:4;stroke-dasharray:none;stroke-opacity:1"
           d="m 57.145565,55.538684 1.386461,-0.0167 0.484426,-0.100227 0.534538,0.06682 0.501131,0.06682 0.283975,-0.11693 0.250566,-0.01669 0.400902,-0.11693 0.53454,0.01669 c 0,0 -1.920999,-0.133633 -2.037929,-0.133633 -0.116933,0 -1.520098,0.06682 -1.520098,0.06682 l -1.336347,0.05011 0.785104,0.05011 0.275621,-0.0167 c 0.02506,0.08352 -0.158689,0.150339 -0.275621,0.150339 -0.11693,0 -0.267269,0.05011 -0.267269,0.05011 z"
           id="km4"
           inkscape:connector-curvature="0"
           inkscape:label="#path217554"
           sodipodi:nodetypes="cccccccccsccccscc" />
        <path
           style="fill:#000000;fill-rule:evenodd;stroke:none;stroke-width:0.05;stroke-linecap:butt;stroke-linejoin:miter;stroke-miterlimit:4;stroke-dasharray:none;stroke-opacity:1"
           d="m 55.420759,55.591331 c 0.06497,-0.01772 1.128022,0.200799 1.346539,0.188987 l 4.228608,0.165364 c 0,0 2.007999,0.0945 2.102493,0.0945 0.0945,0 2.104868,-0.104279 2.338729,-0.07087 0.517835,0.08352 2.932876,0.628049 3.283667,0.661458 0.367496,0.0167 2.621228,-0.259858 3.189176,-0.259858 0.534539,0.100226 1.866257,0.637834 1.866257,0.637834 l 3.685267,0.496094 2.362351,0.04725 2.736906,0.412516 4.680876,0.04814 0.03543,0.992189 c -0.557313,-0.04892 -1.55952,0.150341 -2.255117,0.135082 -0.384663,-0.0084 -0.664147,-0.297329 -0.992238,-0.30205 -0.525801,-0.0076 -0.933748,0.09815 -1.078944,-0.08469 L 79.563985,58.28442 78.85528,58.26079 78.737162,58.23716 73.469118,57.599324 72.382437,57.339466 h -1.606399 l -1.677271,-0.118118 -0.637833,-0.259858 -0.661459,0.02363 -0.732329,-0.0945 -0.472469,-0.07087 -0.448848,-0.04725 -0.614211,-0.118116 -1.27567,-0.307107 -0.566963,-0.02363 -0.661458,0.09449 -0.59059,0.118118 -0.07087,-0.25986 -1.346542,-0.14174 -1.204798,-0.02363 -0.543341,-0.09449 -1.13393,0.141743 -0.354351,0.02363 -1.204799,-0.02363 c -0.06497,-0.06497 0.02363,-0.236236 0.02363,-0.236236 0,0 -1.198895,-0.230311 -1.181177,-0.330711 z"
           id="km2"
           inkscape:connector-curvature="0"
           sodipodi:nodetypes="cccscccccccccssccccccccccccccccccccccccccc"
           inkscape:label="#path217556" />
        <path
           style="fill:#000000;fill-rule:evenodd;stroke:none;stroke-width:0.056;stroke-linecap:butt;stroke-linejoin:miter;stroke-miterlimit:4;stroke-dasharray:none;stroke-opacity:1"
           d="m 50.58975,55.945685 5.232607,0.330729 4.890069,0.519716 8.764323,1.063058 17.77669,2.102493 0.03544,0.956753 c 0,0 -12.614956,-0.815011 -12.70945,-0.791388 -0.09449,0.02362 -3.425409,-0.566964 -3.425409,-0.566964 h -1.27567 l -0.968564,0.07087 c 0,0 -1.228422,-0.141741 -1.34654,-0.141741 -0.118118,0 -0.755952,0.165365 -0.755952,0.165365 l -0.8032,-0.307106 -0.661458,-0.07087 -1.370164,0.165364 c 0,0 -1.248688,0.290402 -1.582775,0.307106 -0.217156,-0.03341 -0.992188,-0.188988 -0.992188,-0.188988 l -0.779575,-0.02362 -1.535529,-0.377976 0.566965,-0.118117 0.614211,-0.307106 c 0,0 -0.566964,-0.283482 -0.354353,-0.354353 0.212612,-0.07087 0.259859,-0.283482 0.259859,-0.283482 l -0.732329,-0.330729 -0.87407,-0.04725 -0.708705,-0.141741 -1.393788,0.212611 -2.811197,-0.850446 -3.047434,-0.637835 z"
           id="km1.5"
           inkscape:connector-curvature="0"
           sodipodi:nodetypes="ccccccccccsccccccccccccccccccc"
           inkscape:label="#path56729" />
        <path
           style="fill:#000000;fill-rule:evenodd;stroke:none;stroke-width:0.05;stroke-linecap:butt;stroke-linejoin:miter;stroke-miterlimit:4;stroke-dasharray:none;stroke-opacity:1"
           d="m 87.265252,60.882999 c -0.07008,-0.02803 -5.643293,-0.369611 -5.905885,-0.369859 -0.843965,-7.98e-4 -2.346158,0.107938 -2.346158,0.107938 l -1.05562,0.545402 -1.635056,0.154888 -1.790354,-0.249378 h -0.685082 l -0.08076,0.167031 -0.268348,0.07127 -0.05249,0.139677 c 0,0 1.441032,0.212611 1.606396,0.212611 0.110233,0 1.837055,0.136009 2.976237,0.171007 0.569753,0.0175 0.992513,-0.05289 0.992513,-0.05289 0,0 1.559153,-0.330729 1.653646,-0.283483 0.0945,0.04725 2.14974,0.566965 2.14974,0.566965 l 0.566965,0.614212 1.582774,0.236233 1.441035,0.259861 0.885883,0.02362"
           id="km0.8"
           inkscape:connector-curvature="0"
           sodipodi:nodetypes="csccccccccssccccccc"
           inkscape:label="#path56731" />
        <path
           style="fill:#000000;fill-rule:evenodd;stroke:none;stroke-width:0.05;stroke-linecap:butt;stroke-linejoin:miter;stroke-miterlimit:4;stroke-dasharray:none;stroke-opacity:1"
           d="m 87.99758,64.001301 -2.527235,-0.80626 -3.402266,-0.39854 -0.992188,-0.04725 -2.50409,-0.33073 c 0,0 0.236233,0.283483 0.401598,0.259861 0.165364,-0.02363 1.795388,0.307104 1.795388,0.307104 l 0.354351,0.118118 0.968566,0.165365 0.986201,0.286578 0.383962,0.351256 0.259858,0.141742"
           id="km0.6"
           inkscape:connector-curvature="0"
           sodipodi:nodetypes="cccccccccccc"
           inkscape:label="#path56733" />
        <path
           style="fill:#000000;fill-rule:evenodd;stroke:none;stroke-width:0.05;stroke-linecap:butt;stroke-linejoin:miter;stroke-miterlimit:4;stroke-dasharray:none;stroke-opacity:1"
           d="m 65.763802,64.158561 -1.106251,-0.676977 0.212611,-0.330729 -1.181174,-0.09449 -0.921318,-0.283483 c 0,0 0.516852,-0.151035 0.566965,-0.4016 -0.467722,-0.350791 -1.41741,-0.307105 -1.41741,-0.307105 l -3.283669,-0.543341 -0.590587,-0.212614 0.02362,-0.236235 0.330729,-0.09449 c 0,0 0.377976,0.236234 0.425223,0.04725 l -0.14174,-0.118117 v -0.188988 l -0.4016,-0.02362 h -0.377976 l -0.330729,0.283483 -1.511905,0.259858 -1.771764,0.236235 -3.649484,-0.04724 -0.06109,2.683299"
           id="km1.0"
           inkscape:connector-curvature="0"
           sodipodi:nodetypes="ccccccccccccccccccccc"
           inkscape:label="#path56735" />
        <path
           style="fill:#000000;fill-rule:evenodd;stroke:none;stroke-width:0.05;stroke-linecap:butt;stroke-linejoin:miter;stroke-miterlimit:4;stroke-dasharray:none;stroke-opacity:1"
           d="m 52.566857,54.707477 c 0.118118,0 0.845903,0.104279 0.845903,0.104279 l 2.385975,0.04725 0.661458,-0.165364 c 0,0 0.590588,0.0945 0.732327,0.118118 0.141743,0.02363 0.779577,-0.09449 0.779577,-0.09449 0,0 0.637836,0.02363 0.54334,0.02363 -0.09449,0 -0.637834,-0.236236 -0.637834,-0.236236 0,0 -0.590587,-0.09449 -0.685083,-0.118118 -0.09449,-0.02363 -1.275667,0.02363 -1.275667,0.02363 l -1.552234,0.03341 c 0,0 -0.522092,0.179202 -0.739248,0.179202 -0.150339,-0.05011 -1.252045,-0.141742 -1.252045,-0.141742 z"
           id="km7"
           inkscape:connector-curvature="0"
           sodipodi:nodetypes="ccccccsccccccc"
           inkscape:label="#path56739" />
        <path
           style="fill:#000000;fill-rule:evenodd;stroke:none;stroke-width:0.05;stroke-linecap:butt;stroke-linejoin:miter;stroke-miterlimit:4;stroke-dasharray:none;stroke-opacity:1"
           d="m 83.935159,52.926543 0.839514,0.216312"
           id="path217544"
           inkscape:connector-curvature="0"
           sodipodi:nodetypes="cc" />
        <path
           inkscape:connector-curvature="0"
           id="path217546"
           d="m 84.757794,52.263876 -0.175111,0.243638"
           style="fill:#000000;fill-rule:evenodd;stroke:none;stroke-width:0.05;stroke-linecap:butt;stroke-linejoin:miter;stroke-miterlimit:4;stroke-dasharray:none;stroke-opacity:1"
           sodipodi:nodetypes="cc" />
        <path
           style="fill:#000000;fill-rule:evenodd;stroke:none;stroke-width:0.05;stroke-linecap:butt;stroke-linejoin:miter;stroke-miterlimit:4;stroke-dasharray:none;stroke-opacity:1"
           d="m 81.684249,53.216783 h 5.22846"
           id="path56745"
           inkscape:connector-curvature="0"
           sodipodi:nodetypes="cc" />
        <path
           inkscape:label="#path217542"
           id="km45"
           transform="matrix(0.26458333,0,0,0.26458333,50.715627,51.404762)"
           d="m 126.92383,3.1835938 -4.54297,2.3125 -0.9375,-0.171875 -0.53516,0.6855468 -1.07226,-1.3417968 -1.86914,2.1074218 H 0.10546875 L 41.408203,6.8710938 H -0.50976562 V 7.0546875 H 120.64453 l 15.17188,0.035156 -0.14649,-0.035156 h 1.71485 V 6.8710938 H 134.9082 L 132.1582,6.2089844 130.5957,5.125 129.30078,3.5273438 128.15234,4.0683594 Z m 8.89258,3.90625 0.0137,0.00391 h 1.48437 z"
           style="fill:#000000;fill-rule:evenodd;stroke:none;stroke-width:0.30217209;stroke-linecap:butt;stroke-linejoin:miter;stroke-miterlimit:4;stroke-dasharray:none;stroke-opacity:1"
           inkscape:connector-curvature="0" />
      </g>
    </g>
  </g>
</svg>
